<svg xmlns="http://www.w3.org/2000/svg" width="720" height="160" viewBox="0 0 720 160">

  <rect x="12" y="20" width="696" height="120" rx="38" fill="#22312b"/>
  <g fill="#f6f1e8" font-family="Arial, sans-serif" font-size="18" font-weight="700" text-anchor="middle">
    <g transform="translate(72 52)"><path d="M0 24 L24 0 L48 24 V56 H12 V32 H36 V56 H48" fill="none" stroke="#f6f1e8" stroke-width="5" stroke-linejoin="round"/><text x="24" y="84">Home</text></g>
    <g transform="translate(216 52)"><circle cx="24" cy="22" r="20" fill="none" stroke="#f6f1e8" stroke-width="5"/><path d="M16 24 L23 33 L34 12" fill="none" stroke="#88d08b" stroke-width="5" stroke-linecap="round"/><text x="24" y="84">Walk</text></g>
    <g transform="translate(360 52)"><path d="M24 2 C42 15 46 29 24 54 C2 29 6 15 24 2Z" fill="none" stroke="#f6f1e8" stroke-width="5"/><text x="24" y="84">Care</text></g>
    <g transform="translate(504 52)"><rect x="4" y="8" width="40" height="40" rx="10" fill="none" stroke="#f6f1e8" stroke-width="5"/><path d="M12 22 H36 M12 34 H30" stroke="#f6f1e8" stroke-width="5" stroke-linecap="round"/><text x="24" y="84">Tasks</text></g>
    <g transform="translate(648 52)"><circle cx="24" cy="18" r="13" fill="none" stroke="#f6f1e8" stroke-width="5"/><path d="M3 56 C8 38 40 38 45 56" fill="none" stroke="#f6f1e8" stroke-width="5" stroke-linecap="round"/><text x="24" y="84">Me</text></g>
  </g>
</svg>
